<svg xmlns="http://www.w3.org/2000/svg" xml:space="preserve" style="fill-rule:evenodd;clip-rule:evenodd;stroke-linejoin:round;stroke-miterlimit:2" viewBox="0 0 826 96"><style>.text {fill: #14122d;}@media (prefers-color-scheme: dark) {.text { fill: white; }}</style><path d="M0 0h826v96H0z" style="fill:none"/><clipPath id="a"><path d="M0 0h826v96H0z"/></clipPath><g clip-path="url(#a)"><path d="M194.485 57.204V75.69h-12.558V20.31h24.726q8.502 0 12.87 4.212 4.446 4.212 4.446 11.7 0 6.318-3.354 11.076-2.181 3.115-5.676 5.955l9.42 19.473v2.964h-12.324l-9.809-18.486zm0-26.988v18.018h11.769a11.7 11.7 0 0 0 3.519-4.056q1.56-2.808 1.56-6.396 0-3.666-1.716-5.616-1.638-1.95-4.758-1.95zM444.167 75.69h-34.242V20.31h34.242v11.076h-21.684v12.168h19.89v8.814h-19.89v12.246h21.684zm45.028 0h-9.594l-7.098-52.026V20.31h12.246l4.046 31.718 8.824-22.982h5.07l8.686 22.544 4.184-31.28h12.09v3.354l-7.02 52.026h-9.828l-10.53-25.506-.195-.626-.195.626zm82.081 0h-34.242V20.31h34.242v11.076h-21.684v12.168h19.89v8.814h-19.89v12.246h21.684zm37.626 0H582.07V20.31h27.066q7.02 0 10.764 3.51 3.744 3.432 3.744 9.438 0 4.992-3.198 8.892-1.764 2.206-4.327 3.912 3.268 1.407 5.341 3.81 3.432 3.978 3.432 10.14 0 7.254-4.056 11.466t-11.934 4.212m-14.274-45.942V44.1h12.648a12.3 12.3 0 0 0 2.562-3.276 9.76 9.76 0 0 0 1.17-4.68q0-2.886-1.482-4.602-1.404-1.794-3.9-1.794zm0 22.152v14.04h11.856q2.808 0 4.212-1.716 1.482-1.794 1.482-5.148 0-3.432-1.482-5.304-1.185-1.56-3.22-1.872zm53.339 10.062V75.69h-12.558V20.31h21.762q6.63 0 10.998 2.34t6.474 7.02q2.184 4.602 2.184 11.466 0 6.708-2.184 11.388-2.106 4.602-6.474 7.02t-10.998 2.418zm0-31.746v21.84h8.892q3.588 0 5.46-2.808 1.95-2.808 1.95-8.112 0-3.432-.858-5.85-.858-2.496-2.574-3.744-1.638-1.326-3.978-1.326zM821.748 75.69h-34.242V20.31h34.242v11.076h-21.684v12.168h19.89v8.814h-19.89v12.246h21.684zm-681.833-9.594-3.053 9.594h-11.934v-2.73l17.784-52.65h12.48l17.55 52.416v2.964H160.34l-2.94-9.594zm14.998-8.112-6.091-19.874-6.325 19.874zm135.509-4.368V75.69h-12.558V20.31h12.558v21.84h16.302V20.31h12.558v55.38h-12.558V53.616zm86.86 4.137 11.349-37.443h12.09v2.652L383.093 75.69h-11.934l-17.472-52.416V20.31h12.324zm318.624 8.343-3.053 9.594h-11.934v-2.73l17.784-52.65h12.48l17.55 52.416v2.964h-12.402l-2.94-9.594zm14.998-8.112-6.091-19.874-6.325 19.874zM256.567 76.47q-7.8 0-13.182-2.808-5.382-2.886-8.268-9.204T232.231 48t2.964-16.458 8.424-9.126q5.46-2.886 13.104-2.886 3.12 0 5.928.312t5.226 1.014l-1.716 10.686q-3.666-.78-8.034-.78-4.446 0-7.41 1.794-2.886 1.794-4.446 5.616-1.482 3.744-1.482 9.828t1.482 9.906 4.368 5.616q2.886 1.716 7.098 1.716 4.446 0 8.658-.858l1.716 10.764q-2.73.702-5.538 1.014a55 55 0 0 1-6.006.312m75.321-.78V20.31h12.558v55.38zm427.792.78q-8.268 0-13.884-2.886-5.616-2.964-8.502-9.282-2.886-6.396-2.886-16.458 0-9.516 3.042-15.756 3.12-6.318 9.126-9.438t14.82-3.12q6.786 0 13.806 1.716l-2.106 10.296a58.3 58.3 0 0 0-11.154-1.092q-5.07 0-8.424 1.872-3.276 1.794-4.992 5.694-1.638 3.9-1.638 10.14 0 6.396 1.326 10.374t4.056 5.85q2.73 1.794 7.098 1.794 2.262 0 4.758-.312V53.07l-8.424-2.028v-7.644h19.734V74.13a49.7 49.7 0 0 1-7.8 1.716 51 51 0 0 1-7.956.624" class="text"/><path d="M70 95a.997.997 0 0 1-1 1H53a.997.997 0 0 1-1-1V48c0-2.208-1.792-4-4-4s-4 1.792-4 4v47a.997.997 0 0 1-1 1H27a.997.997 0 0 1-1-1V48c0-11.67 10.33-22 22-22 12.15 0 22 9.85 22 22z" style="fill:#0891b2"/><path d="M18 95a.997.997 0 0 1-1 1H1a.997.997 0 0 1-1-1V48C0 21.49 21.49 0 48 0s48 21.49 48 48v47a.997.997 0 0 1-1 1H79a.997.997 0 0 1-1-1V48c0-16.569-13.431-30-30-30-15.913 0-30 14.087-30 30z" style="fill:#4d7c0f"/></g></svg>
