<svg xmlns="http://www.w3.org/2000/svg" xml:space="preserve" style="fill-rule:evenodd;clip-rule:evenodd;stroke-linejoin:round;stroke-miterlimit:2" viewBox="0 0 96 96"><path d="M0 0h96v96H0z" style="fill:none"/><clipPath id="a"><path d="M0 0h96v96H0z"/></clipPath><g clip-path="url(#a)"><path d="M70 95a.997.997 0 0 1-1 1H53a.997.997 0 0 1-1-1V48c0-2.208-1.792-4-4-4s-4 1.792-4 4v47a.997.997 0 0 1-1 1H27a.997.997 0 0 1-1-1V48c0-11.67 10.33-22 22-22 12.15 0 22 9.85 22 22z" style="fill:#0891b2"/><path d="M18 95a.997.997 0 0 1-1 1H1a.997.997 0 0 1-1-1V48C0 21.49 21.49 0 48 0s48 21.49 48 48v47a.997.997 0 0 1-1 1H79a.997.997 0 0 1-1-1V48c0-16.569-13.431-30-30-30-15.913 0-30 14.087-30 30z" style="fill:#4d7c0f"/></g></svg>