<?xml version="1.0" encoding="UTF-8" standalone="no"?>
<svg
   xmlns:dc="http://purl.org/dc/elements/1.1/"
   xmlns:cc="http://creativecommons.org/ns#"
   xmlns:rdf="http://www.w3.org/1999/02/22-rdf-syntax-ns#"
   xmlns:svg="http://www.w3.org/2000/svg"
   xmlns="http://www.w3.org/2000/svg"
   xmlns:sodipodi="http://sodipodi.sourceforge.net/DTD/sodipodi-0.dtd"
   xmlns:inkscape="http://www.inkscape.org/namespaces/inkscape"
   viewBox="0 -256 1792 1792"
   id="svg3741"
   version="1.1"
   inkscape:version="0.48.3.1 r9886"
   width="100%"
   height="100%"
   sodipodi:docname="trash_font_awesome.svg">
  <metadata
     id="metadata3751">
    <rdf:RDF>
      <cc:Work
         rdf:about="">
        <dc:format>image/svg+xml</dc:format>
        <dc:type
           rdf:resource="http://purl.org/dc/dcmitype/StillImage" />
      </cc:Work>
    </rdf:RDF>
  </metadata>
  <defs
     id="defs3749" />
  <sodipodi:namedview
     pagecolor="#ffffff"
     bordercolor="#666666"
     borderopacity="1"
     objecttolerance="10"
     gridtolerance="10"
     guidetolerance="10"
     inkscape:pageopacity="0"
     inkscape:pageshadow="2"
     inkscape:window-width="640"
     inkscape:window-height="480"
     id="namedview3747"
     showgrid="false"
     inkscape:zoom="0.13169643"
     inkscape:cx="896"
     inkscape:cy="896"
     inkscape:window-x="0"
     inkscape:window-y="25"
     inkscape:window-maximized="0"
     inkscape:current-layer="svg3741" />
  <g
     transform="matrix(1,0,0,-1,197.42373,1255.0508)"
     id="g3743">
    <path
       d="M 512,800 V 224 q 0,-14 -9,-23 -9,-9 -23,-9 h -64 q -14,0 -23,9 -9,9 -9,23 v 576 q 0,14 9,23 9,9 23,9 h 64 q 14,0 23,-9 9,-9 9,-23 z m 256,0 V 224 q 0,-14 -9,-23 -9,-9 -23,-9 h -64 q -14,0 -23,9 -9,9 -9,23 v 576 q 0,14 9,23 9,9 23,9 h 64 q 14,0 23,-9 9,-9 9,-23 z m 256,0 V 224 q 0,-14 -9,-23 -9,-9 -23,-9 h -64 q -14,0 -23,9 -9,9 -9,23 v 576 q 0,14 9,23 9,9 23,9 h 64 q 14,0 23,-9 9,-9 9,-23 z M 1152,76 v 948 H 256 V 76 Q 256,54 263,35.5 270,17 277.5,8.5 285,0 288,0 h 832 q 3,0 10.5,8.5 7.5,8.5 14.5,27 7,18.5 7,40.5 z M 480,1152 h 448 l -48,117 q -7,9 -17,11 H 546 q -10,-2 -17,-11 z m 928,-32 v -64 q 0,-14 -9,-23 -9,-9 -23,-9 h -96 V 76 q 0,-83 -47,-143.5 -47,-60.5 -113,-60.5 H 288 q -66,0 -113,58.5 Q 128,-11 128,72 v 952 H 32 q -14,0 -23,9 -9,9 -9,23 v 64 q 0,14 9,23 9,9 23,9 h 309 l 70,167 q 15,37 54,63 39,26 79,26 h 320 q 40,0 79,-26 39,-26 54,-63 l 70,-167 h 309 q 14,0 23,-9 9,-9 9,-23 z"
       id="path3745"
       inkscape:connector-curvature="0"
       style="fill: #f00" />
  </g>
</svg>
