<?xml version="1.0" encoding="UTF-8" standalone="no"?>
<svg
   xmlns:dc="http://purl.org/dc/elements/1.1/"
   xmlns:cc="http://creativecommons.org/ns#"
   xmlns:rdf="http://www.w3.org/1999/02/22-rdf-syntax-ns#"
   xmlns:svg="http://www.w3.org/2000/svg"
   xmlns="http://www.w3.org/2000/svg"
   xmlns:xlink="http://www.w3.org/1999/xlink"
   id="svg374"
   version="1.1"
   viewBox="0 0 51.142857 6.3765488"
   height="6.3765488mm"
   width="51.142857mm">
  <defs
     id="defs368">
    <linearGradient
       xlink:href="#linearGradient5691"
       id="linearGradient5822"
       gradientUnits="userSpaceOnUse"
       x1="97.590668"
       y1="384.07156"
       x2="414.19955"
       y2="384.07156"
       gradientTransform="matrix(1.1150358,0,0,1.1150358,-92.51496,516.18966)" />
    <linearGradient
       id="linearGradient5691">
      <stop
         id="stop5687"
         offset="0"
         style="stop-color:#4876ff;stop-opacity:1" />
      <stop
         id="stop5689"
         offset="1"
         style="stop-color:#04cdff;stop-opacity:1" />
    </linearGradient>
    <linearGradient
       y2="384.07156"
       x2="414.19955"
       y1="384.07156"
       x1="97.590668"
       gradientTransform="matrix(1.1150358,0,0,1.1150358,-92.51496,516.18966)"
       gradientUnits="userSpaceOnUse"
       id="linearGradient456"
       xlink:href="#linearGradient5691" />
    <linearGradient
       y2="384.07156"
       x2="414.19955"
       y1="384.07156"
       x1="97.590668"
       gradientTransform="matrix(1.1150358,0,0,1.1150358,-92.51496,516.18966)"
       gradientUnits="userSpaceOnUse"
       id="linearGradient458"
       xlink:href="#linearGradient5691" />
    <linearGradient
       y2="384.07156"
       x2="414.19955"
       y1="384.07156"
       x1="97.590668"
       gradientTransform="matrix(1.1150358,0,0,1.1150358,-92.51496,516.18966)"
       gradientUnits="userSpaceOnUse"
       id="linearGradient460"
       xlink:href="#linearGradient5691" />
    <linearGradient
       y2="384.07156"
       x2="414.19955"
       y1="384.07156"
       x1="97.590668"
       gradientTransform="matrix(1.1150358,0,0,1.1150358,-92.51496,516.18966)"
       gradientUnits="userSpaceOnUse"
       id="linearGradient462"
       xlink:href="#linearGradient5691" />
    <linearGradient
       y2="384.07156"
       x2="414.19955"
       y1="384.07156"
       x1="97.590668"
       gradientTransform="matrix(1.1150358,0,0,1.1150358,-92.51496,516.18966)"
       gradientUnits="userSpaceOnUse"
       id="linearGradient464"
       xlink:href="#linearGradient5691" />
    <linearGradient
       y2="384.07156"
       x2="414.19955"
       y1="384.07156"
       x1="97.590668"
       gradientTransform="matrix(1.1150358,0,0,1.1150358,-92.51496,516.18966)"
       gradientUnits="userSpaceOnUse"
       id="linearGradient466"
       xlink:href="#linearGradient5691" />
    <linearGradient
       y2="384.07156"
       x2="414.19955"
       y1="384.07156"
       x1="97.590668"
       gradientTransform="matrix(1.1150358,0,0,1.1150358,-92.51496,516.18966)"
       gradientUnits="userSpaceOnUse"
       id="linearGradient468"
       xlink:href="#linearGradient5691" />
    <linearGradient
       y2="384.07156"
       x2="414.19955"
       y1="384.07156"
       x1="97.590668"
       gradientTransform="matrix(1.1150358,0,0,1.1150358,-92.51496,516.18966)"
       gradientUnits="userSpaceOnUse"
       id="linearGradient470"
       xlink:href="#linearGradient5691" />
    <linearGradient
       y2="384.07156"
       x2="414.19955"
       y1="384.07156"
       x1="97.590668"
       gradientTransform="matrix(1.1150358,0,0,1.1150358,-92.51496,516.18966)"
       gradientUnits="userSpaceOnUse"
       id="linearGradient472"
       xlink:href="#linearGradient5691" />
    <linearGradient
       y2="384.07156"
       x2="414.19955"
       y1="384.07156"
       x1="97.590668"
       gradientTransform="matrix(1.1150358,0,0,1.1150358,-92.51496,516.18966)"
       gradientUnits="userSpaceOnUse"
       id="linearGradient474"
       xlink:href="#linearGradient5691" />
    <linearGradient
       y2="384.07156"
       x2="414.19955"
       y1="384.07156"
       x1="97.590668"
       gradientTransform="matrix(1.1150358,0,0,1.1150358,-92.51496,516.18966)"
       gradientUnits="userSpaceOnUse"
       id="linearGradient476"
       xlink:href="#linearGradient5691" />
  </defs>
  <metadata
     id="metadata371">
    <rdf:RDF>
      <cc:Work
         rdf:about="">
        <dc:format>image/svg+xml</dc:format>
        <dc:type
           rdf:resource="http://purl.org/dc/dcmitype/StillImage" />
        <dc:title></dc:title>
      </cc:Work>
    </rdf:RDF>
  </metadata>
  <g
     transform="translate(-80.261905,-144.97839)"
     id="layer1">
    <g
       transform="matrix(0.14486819,0,0,0.14486819,77.900245,11.346888)"
       id="text4681-2-4"
       style="font-style:normal;font-variant:normal;font-weight:normal;font-stretch:normal;font-size:61.9075px;line-height:1.25;font-family:'Source Sans Pro';-inkscape-font-specification:'Source Sans Pro';letter-spacing:0px;word-spacing:0px;fill:url(#linearGradient5822);fill-opacity:1;stroke:none;stroke-width:1.54769"
       aria-label="Webrecorder">
      <path
         id="path6714"
         style="font-style:normal;font-variant:normal;font-weight:bold;font-stretch:normal;font-family:'Source Sans Pro';-inkscape-font-specification:'Source Sans Pro Bold';fill:url(#linearGradient456);fill-opacity:1;stroke-width:1.54769"
         d="m 23.545303,965.70844 -7.243174,-40.30177 h 9.781381 l 2.538206,18.44843 q 0.433353,3.21919 0.804797,6.43837 0.371445,3.15729 0.680983,6.43838 h 0.24763 q 0.557167,-3.28109 1.114334,-6.50028 0.619075,-3.21919 1.23815,-6.37647 l 4.209708,-18.44843 h 8.295601 l 4.085894,18.44843 q 0.619074,3.03346 1.176242,6.31456 0.619074,3.21919 1.176242,6.56219 h 0.24763 q 0.309537,-3.343 0.680982,-6.56219 0.433352,-3.21919 0.804797,-6.31456 l 2.723929,-18.44843 h 9.162306 l -7.119359,40.30177 H 45.955809 L 42.303268,948.0648 q -0.49526,-2.35248 -0.866705,-4.70496 -0.309537,-2.41439 -0.619074,-4.82879 h -0.24763 q -0.309538,2.4144 -0.680982,4.82879 -0.371445,2.35248 -0.866705,4.70496 l -3.466819,17.64364 z" />
      <path
         id="path6716"
         style="font-style:normal;font-variant:normal;font-weight:bold;font-stretch:normal;font-family:'Source Sans Pro';-inkscape-font-specification:'Source Sans Pro Bold';fill:url(#linearGradient458);fill-opacity:1;stroke-width:1.54769"
         d="m 83.806426,966.45132 q -4.395431,0 -7.924157,-1.85722 -3.528726,-1.91913 -5.63358,-5.50976 -2.042947,-3.65255 -2.042947,-8.79087 0,-5.0145 2.104854,-8.60514 2.104854,-3.59063 5.447858,-5.50976 3.343004,-1.98104 6.995545,-1.98104 4.457338,0 7.366989,1.98104 2.971559,1.91913 4.395431,5.26214 1.485779,3.343 1.485779,7.55271 0,1.30005 -0.123815,2.41439 -0.123815,1.11433 -0.24763,1.79532 h -18.13889 q 0.680982,3.09537 2.723929,4.51924 2.042947,1.42387 4.952598,1.42387 3.281096,0 6.6241,-1.91913 l 3.095374,5.7574 q -2.414392,1.73341 -5.385951,2.60011 -2.971558,0.8667 -5.695487,0.8667 z m -6.438378,-19.68657 h 10.462364 q 0,-2.29058 -1.114335,-3.77636 -1.114335,-1.54768 -3.714448,-1.54768 -2.042947,0 -3.590634,1.30005 -1.547687,1.30006 -2.042947,4.02399 z" />
      <path
         id="path6718"
         style="font-style:normal;font-variant:normal;font-weight:bold;font-stretch:normal;font-family:'Source Sans Pro';-inkscape-font-specification:'Source Sans Pro Bold';fill:url(#linearGradient460);fill-opacity:1;stroke-width:1.54769"
         d="m 118.5694,966.45132 q -4.33352,0 -7.98606,-4.02398 h -0.24763 l -0.74289,3.2811 h -7.4908 v -43.27333 h 9.53375 v 10.40046 l -0.18573,4.64306 q 1.73341,-1.54769 3.77636,-2.41439 2.04295,-0.86671 4.1478,-0.86671 3.71445,0 6.43838,1.91913 2.72393,1.91913 4.1478,5.44786 1.48578,3.46682 1.48578,8.23369 0,5.26214 -1.85723,9.0385 -1.79531,3.71444 -4.76687,5.69548 -2.90965,1.91913 -6.25266,1.91913 z m -2.29057,-7.86224 q 2.22867,0 3.77635,-1.98104 1.54769,-1.98104 1.54769,-6.68601 0,-7.92416 -5.0145,-7.92416 -2.53821,0 -4.9526,2.60012 v 12.19577 q 1.17624,0.99052 2.35248,1.42387 1.17624,0.37145 2.29058,0.37145 z" />
      <path
         id="path6720"
         style="font-style:normal;font-variant:normal;font-weight:bold;font-stretch:normal;font-family:'Source Sans Pro';-inkscape-font-specification:'Source Sans Pro Bold';fill:url(#linearGradient462);fill-opacity:1;stroke-width:1.54769"
         d="m 137.65045,965.70844 v -30.76802 h 7.80034 l 0.68098,5.32404 h 0.24763 q 1.6715,-3.09537 4.02399,-4.58115 2.41439,-1.48578 4.70497,-1.48578 2.47629,0 3.71444,0.61908 l -1.79531,8.10987 q -0.8048,-0.18572 -1.48578,-0.24763 -0.61908,-0.12381 -1.6715,-0.12381 -1.73341,0 -3.59064,1.23815 -1.85722,1.23815 -3.09537,4.33352 v 17.58173 z" />
      <path
         id="path6722"
         style="font-style:normal;font-variant:normal;font-weight:bold;font-stretch:normal;font-family:'Source Sans Pro';-inkscape-font-specification:'Source Sans Pro Bold';fill:url(#linearGradient464);fill-opacity:1;stroke-width:1.54769"
         d="m 175.94216,966.45132 q -4.39543,0 -7.92416,-1.85722 -3.52872,-1.91913 -5.63358,-5.50976 -2.04294,-3.65255 -2.04294,-8.79087 0,-5.0145 2.10485,-8.60514 2.10485,-3.59063 5.44786,-5.50976 3.343,-1.98104 6.99554,-1.98104 4.45734,0 7.36699,1.98104 2.97156,1.91913 4.39543,5.26214 1.48578,3.343 1.48578,7.55271 0,1.30005 -0.12381,2.41439 -0.12382,1.11433 -0.24763,1.79532 H 169.6276 q 0.68098,3.09537 2.72393,4.51924 2.04294,1.42387 4.95259,1.42387 3.2811,0 6.6241,-1.91913 l 3.09538,5.7574 q -2.41439,1.73341 -5.38595,2.60011 -2.97156,0.8667 -5.69549,0.8667 z m -6.43838,-19.68657 h 10.46237 q 0,-2.29058 -1.11434,-3.77636 -1.11433,-1.54768 -3.71445,-1.54768 -2.04294,0 -3.59063,1.30005 -1.54769,1.30006 -2.04295,4.02399 z" />
      <path
         id="path6724"
         style="font-style:normal;font-variant:normal;font-weight:bold;font-stretch:normal;font-family:'Source Sans Pro';-inkscape-font-specification:'Source Sans Pro Bold';fill:url(#linearGradient466);fill-opacity:1;stroke-width:1.54769"
         d="m 207.7955,966.45132 q -4.33353,0 -7.80035,-1.91913 -3.46682,-1.91913 -5.50976,-5.50976 -1.98104,-3.65254 -1.98104,-8.72896 0,-5.13832 2.22867,-8.72895 2.29057,-3.59063 5.94312,-5.44786 3.71444,-1.91913 7.98606,-1.91913 2.84774,0 5.01451,0.92861 2.22866,0.86671 3.96207,2.35249 l -4.45733,5.88121 q -1.98104,-1.48578 -3.96208,-1.48578 -3.21919,0 -5.07642,2.29057 -1.85722,2.29058 -1.85722,6.12884 0,3.83827 1.85722,6.12884 1.91914,2.29058 4.76688,2.29058 1.54769,0 2.84774,-0.49526 1.30006,-0.55717 2.4763,-1.42387 l 3.71445,6.00502 q -2.22867,2.04295 -4.9526,2.84775 -2.72393,0.80479 -5.20022,0.80479 z" />
      <path
         id="path6726"
         style="font-style:normal;font-variant:normal;font-weight:bold;font-stretch:normal;font-family:'Source Sans Pro';-inkscape-font-specification:'Source Sans Pro Bold';fill:url(#linearGradient468);fill-opacity:1;stroke-width:1.54769"
         d="m 234.8742,966.45132 q -3.90017,0 -7.36698,-1.91913 -3.40492,-1.91913 -5.57168,-5.50976 -2.10485,-3.65254 -2.10485,-8.72896 0,-5.13832 2.10485,-8.72895 2.16676,-3.59063 5.57168,-5.44786 3.46681,-1.91913 7.36698,-1.91913 3.96208,0 7.36699,1.91913 3.46682,1.85723 5.57168,5.44786 2.16676,3.59063 2.16676,8.72895 0,5.07642 -2.16676,8.72896 -2.10486,3.59063 -5.57168,5.50976 -3.40491,1.91913 -7.36699,1.91913 z m 0,-7.73843 q 2.72393,0 3.96208,-2.29058 1.30006,-2.29057 1.30006,-6.12884 0,-3.83826 -1.30006,-6.12884 -1.23815,-2.29057 -3.96208,-2.29057 -2.66202,0 -3.96207,2.29057 -1.30006,2.29058 -1.30006,6.12884 0,3.83827 1.30006,6.12884 1.30005,2.29058 3.96207,2.29058 z" />
      <path
         id="path6728"
         style="font-style:normal;font-variant:normal;font-weight:bold;font-stretch:normal;font-family:'Source Sans Pro';-inkscape-font-specification:'Source Sans Pro Bold';fill:url(#linearGradient470);fill-opacity:1;stroke-width:1.54769"
         d="m 256.02432,965.70844 v -30.76802 h 7.80034 l 0.68098,5.32404 h 0.24763 q 1.6715,-3.09537 4.02399,-4.58115 2.41439,-1.48578 4.70497,-1.48578 2.4763,0 3.71444,0.61908 l -1.79531,8.10987 q -0.8048,-0.18572 -1.48578,-0.24763 -0.61908,-0.12381 -1.6715,-0.12381 -1.73341,0 -3.59064,1.23815 -1.85722,1.23815 -3.09537,4.33352 v 17.58173 z" />
      <path
         id="path6730"
         style="font-style:normal;font-variant:normal;font-weight:bold;font-stretch:normal;font-family:'Source Sans Pro';-inkscape-font-specification:'Source Sans Pro Bold';fill:url(#linearGradient472);fill-opacity:1;stroke-width:1.54769"
         d="m 291.46827,966.45132 q -5.69549,0 -9.1623,-4.33352 -3.40492,-4.33352 -3.40492,-11.82433 0,-5.0145 1.85723,-8.60514 1.85722,-3.65254 4.76687,-5.57167 2.90966,-1.91913 6.06694,-1.91913 2.5382,0 4.20971,0.86671 1.7334,0.8667 3.21918,2.29057 l -0.30953,-4.58115 v -10.33855 h 9.59566 v 43.27333 h -7.86225 l -0.68099,-2.97156 h -0.18572 q -1.60959,1.60959 -3.77635,2.66202 -2.16677,1.05242 -4.33353,1.05242 z m 2.53821,-7.86224 q 1.42387,0 2.5382,-0.55717 1.11434,-0.55717 2.16677,-1.98104 v -12.25768 q -1.11434,-0.99052 -2.41439,-1.36197 -1.23815,-0.43335 -2.4144,-0.43335 -2.04294,0 -3.59063,1.98104 -1.54769,1.91913 -1.54769,6.25266 0,4.39543 1.36197,6.37647 1.42387,1.98104 3.90017,1.98104 z" />
      <path
         id="path6732"
         style="font-style:normal;font-variant:normal;font-weight:bold;font-stretch:normal;font-family:'Source Sans Pro';-inkscape-font-specification:'Source Sans Pro Bold';fill:url(#linearGradient474);fill-opacity:1;stroke-width:1.54769"
         d="m 329.86445,966.45132 q -4.39543,0 -7.92416,-1.85722 -3.52873,-1.91913 -5.63358,-5.50976 -2.04295,-3.65255 -2.04295,-8.79087 0,-5.0145 2.10486,-8.60514 2.10485,-3.59063 5.44786,-5.50976 3.343,-1.98104 6.99554,-1.98104 4.45734,0 7.36699,1.98104 2.97156,1.91913 4.39543,5.26214 1.48578,3.343 1.48578,7.55271 0,1.30005 -0.12382,2.41439 -0.12381,1.11433 -0.24763,1.79532 h -18.13889 q 0.68099,3.09537 2.72393,4.51924 2.04295,1.42387 4.9526,1.42387 3.2811,0 6.6241,-1.91913 l 3.09538,5.7574 q -2.4144,1.73341 -5.38596,2.60011 -2.97155,0.8667 -5.69548,0.8667 z m -6.43838,-19.68657 h 10.46236 q 0,-2.29058 -1.11433,-3.77636 -1.11434,-1.54768 -3.71445,-1.54768 -2.04295,0 -3.59063,1.30005 -1.54769,1.30006 -2.04295,4.02399 z" />
      <path
         id="path6734"
         style="font-style:normal;font-variant:normal;font-weight:bold;font-stretch:normal;font-family:'Source Sans Pro';-inkscape-font-specification:'Source Sans Pro Bold';fill:url(#linearGradient476);fill-opacity:1;stroke-width:1.54769"
         d="m 348.16005,965.70844 v -30.76802 h 7.80034 l 0.68098,5.32404 h 0.24763 q 1.6715,-3.09537 4.02398,-4.58115 2.4144,-1.48578 4.70497,-1.48578 2.4763,0 3.71445,0.61908 l -1.79532,8.10987 q -0.80479,-0.18572 -1.48577,-0.24763 -0.61908,-0.12381 -1.67151,-0.12381 -1.73341,0 -3.59063,1.23815 -1.85722,1.23815 -3.09537,4.33352 v 17.58173 z" />
    </g>
  </g>
</svg>
